<svg xmlns="http://www.w3.org/2000/svg" viewBox="0 0 1597 425" height="425" width="1597" xmlns:xlink="http://www.w3.org/1999/xlink"><defs><linearGradient x1="0%" x2="0%" id="lg1" y2="0%" y1="100%"><stop stop-color="#ebebeb" offset="0.00"/><stop stop-color="#ebebeb" offset="1.00"/><stop stop-color="#d7d7d7" offset="1.00"/></linearGradient><linearGradient x1="0%" x2="0%" id="lg2" y2="0%" y1="100%"><stop stop-color="#ebebeb" offset="0.00"/><stop stop-color="#ebebeb" offset="1.00"/><stop stop-color="#d8d8d8" offset="1.00"/></linearGradient></defs><g transform="translate(-1818.64,-6928.00)"><path stroke="#101843" fill-rule="nonzero" stroke-width="1" d="M393.8,272.0L393.8,11.0C393.8,4.9,388.8,.0,382.8,.0L11.0,.0C4.9,.0,.0,4.9,.0,11.0L.0,272.0C.0,278.1,4.9,283.0,11.0,283.0L382.8,283.0C388.8,283.0,393.8,278.1,393.8,272.0z" fill="url(#lg1)" id="shape1" transform="translate(2108.294000,6964.040000)"/><g id="shape2" transform="matrix(0.000000,-1.000000,1.000000,0.000000,2145.170000,7225.040000)"><path stroke="#2a7d72" fill-rule="nonzero" stroke-width="2.3333299160003662" d="M22.0,44.0L217.0,44.0L217.0,44.0C229.2,44.0,239.0,34.2,239.0,22.0C239.0,9.8,229.2,.0,217.0,.0L22.0,.0L22.0,.0C9.8,.0,.0,9.8,.0,22.0C.0,34.2,9.8,44.0,22.0,44.0z" fill="#d0f0ea"/><text xml:space="preserve" style="fill:#191919;font-family:微软雅黑,PingFang SC,Mircrosoft YaHei,Arial;font-size:30px"><tspan y="31.5" textLength="109.0" style="font-size:24px" x="65.0">DM block</tspan></text></g><g id="shape3" transform="matrix(0.000000,-1.000000,1.000000,0.000000,2214.170000,7225.040000)"><path stroke="#254694" fill-rule="nonzero" stroke-width="2.3333299160003662" d="M22.0,44.0L217.0,44.0L217.0,44.0C229.2,44.0,239.0,34.2,239.0,22.0C239.0,9.8,229.2,.0,217.0,.0L22.0,.0L22.0,.0C9.8,.0,.0,9.8,.0,22.0C.0,34.2,9.8,44.0,22.0,44.0z" fill="#cfd7ff"/><text xml:space="preserve" style="fill:#191919;font-family:微软雅黑,PingFang SC,Mircrosoft YaHei,Arial;font-size:30px"><tspan y="31.5" textLength="192.0" style="font-size:24px" x="23.5">HoriEPI Extractor</tspan></text></g><g id="shape4" transform="matrix(0.000000,-1.000000,1.000000,0.000000,2352.170000,7225.040000)"><path stroke="#254694" fill-rule="nonzero" stroke-width="2.3333299160003662" d="M22.0,44.0L217.0,44.0L217.0,44.0C229.2,44.0,239.0,34.2,239.0,22.0C239.0,9.8,229.2,.0,217.0,.0L22.0,.0L22.0,.0C9.8,.0,.0,9.8,.0,22.0C.0,34.2,9.8,44.0,22.0,44.0z" fill="#cfd7ff"/><text xml:space="preserve" style="fill:#191919;font-family:微软雅黑,PingFang SC,Mircrosoft YaHei,Arial;font-size:30px"><tspan y="31.5" textLength="182.0" style="font-size:24px" x="28.5">VerEPI Extractor</tspan></text></g><g id="shape5" transform="matrix(0.000000,-1.000000,1.000000,0.000000,2283.170000,7225.040000)"><path stroke="#954744" fill-rule="nonzero" stroke-width="2.3333299160003662" d="M22.0,44.0L217.0,44.0L217.0,44.0C229.2,44.0,239.0,34.2,239.0,22.0C239.0,9.8,229.2,.0,217.0,.0L22.0,.0L22.0,.0C9.8,.0,.0,9.8,.0,22.0C.0,34.2,9.8,44.0,22.0,44.0z" fill="#ffd8d7"/><text xml:space="preserve" style="fill:#191919;font-family:微软雅黑,PingFang SC,Mircrosoft YaHei,Arial;font-size:30px"><tspan y="31.5" textLength="197.0" style="font-size:24px" x="21.0">General SpaConv</tspan></text></g><g id="shape6" transform="matrix(0.000000,-1.000000,1.000000,0.000000,2421.170000,7225.040000)"><path stroke="#954744" fill-rule="nonzero" stroke-width="2.3333299160003662" d="M22.0,44.0L217.0,44.0L217.0,44.0C229.2,44.0,239.0,34.2,239.0,22.0C239.0,9.8,229.2,.0,217.0,.0L22.0,.0L22.0,.0C9.8,.0,.0,9.8,.0,22.0C.0,34.2,9.8,44.0,22.0,44.0z" fill="#ffd8d7"/><text xml:space="preserve" style="fill:#191919;font-family:微软雅黑,PingFang SC,Mircrosoft YaHei,Arial;font-size:30px"><tspan y="31.5" textLength="197.0" style="font-size:24px" x="21.0">General SpaConv</tspan></text></g><path stroke="#101843" fill-rule="nonzero" stroke-width="1" d="M158.1,283.0C164.7,283.0,170.1,277.6,170.1,271.0L170.1,12.0C170.1,5.4,164.7,.0,158.1,.0L12.0,.0C5.4,.0,.0,5.4,.0,12.0L.0,271.0C.0,277.6,5.4,283.0,12.0,283.0L158.1,283.0z" fill="url(#lg2)" id="shape7" transform="translate(2520.940600,6964.040000)"/><path stroke="#2a7d72" fill-rule="nonzero" stroke-width="2.3333299160003662" d="M9.4,18.9L229.6,18.9L229.6,18.9C234.8,18.9,239.0,14.7,239.0,9.4C239.0,4.2,234.8,.0,229.6,.0L9.4,.0L9.4,.0C4.2,.0,.0,4.2,.0,9.4C.0,14.7,4.2,18.9,9.4,18.9z" fill="#d0f0ea" id="shape8" transform="matrix(0.000000,-1.000000,1.000000,0.000000,2539.841180,7225.040000)"/><path stroke="#254694" fill-rule="nonzero" stroke-width="2.3333299160003662" d="M9.4,18.9L229.6,18.9L229.6,18.9C234.8,18.9,239.0,14.7,239.0,9.4C239.0,4.2,234.8,.0,229.6,.0L9.4,.0L9.4,.0C4.2,.0,.0,4.2,.0,9.4C.0,14.7,4.2,18.9,9.4,18.9z" fill="#cfd7ff" id="shape9" transform="matrix(0.000000,-1.000000,1.000000,0.000000,2568.191180,7225.040000)"/><path stroke="#254694" fill-rule="nonzero" stroke-width="2.3333299160003662" d="M9.4,18.9L229.6,18.9L229.6,18.9C234.8,18.9,239.0,14.7,239.0,9.4C239.0,4.2,234.8,.0,229.6,.0L9.4,.0L9.4,.0C4.2,.0,.0,4.2,.0,9.4C.0,14.7,4.2,18.9,9.4,18.9z" fill="#cfd7ff" id="shape10" transform="matrix(0.000000,-1.000000,1.000000,0.000000,2624.881180,7225.040000)"/><path stroke="#954744" fill-rule="nonzero" stroke-width="2.3333299160003662" d="M9.4,18.9L229.6,18.9L229.6,18.9C234.8,18.9,239.0,14.7,239.0,9.4C239.0,4.2,234.8,.0,229.6,.0L9.4,.0L9.4,.0C4.2,.0,.0,4.2,.0,9.4C.0,14.7,4.2,18.9,9.4,18.9z" fill="#ffd8d7" id="shape11" transform="matrix(0.000000,-1.000000,1.000000,0.000000,2596.531180,7225.040000)"/><path stroke="#954744" fill-rule="nonzero" stroke-width="2.3333299160003662" d="M9.4,18.9L229.6,18.9L229.6,18.9C234.8,18.9,239.0,14.7,239.0,9.4C239.0,4.2,234.8,.0,229.6,.0L9.4,.0L9.4,.0C4.2,.0,.0,4.2,.0,9.4C.0,14.7,4.2,18.9,9.4,18.9z" fill="#ffd8d7" id="shape12" transform="matrix(0.000000,-1.000000,1.000000,0.000000,2653.231180,7225.040000)"/><path stroke="#101843" fill-rule="nonzero" stroke-width="1" d="M158.1,283.0C164.7,283.0,170.1,277.6,170.1,271.0L170.1,12.0C170.1,5.4,164.7,.0,158.1,.0L12.0,.0C5.4,.0,.0,5.4,.0,12.0L.0,271.0C.0,277.6,5.4,283.0,12.0,283.0L158.1,283.0z" fill="url(#lg2)" id="shape13" transform="translate(2709.920600,6964.040000)"/><path stroke="#2a7d72" fill-rule="nonzero" stroke-width="2.3333299160003662" d="M9.4,18.9L229.6,18.9L229.6,18.9C234.8,18.9,239.0,14.7,239.0,9.4C239.0,4.2,234.8,.0,229.6,.0L9.4,.0L9.4,.0C4.2,.0,.0,4.2,.0,9.4C.0,14.7,4.2,18.9,9.4,18.9z" fill="#d0f0ea" id="shape14" transform="matrix(0.000000,-1.000000,1.000000,0.000000,2728.821180,7225.040000)"/><path stroke="#254694" fill-rule="nonzero" stroke-width="2.3333299160003662" d="M9.4,18.9L229.6,18.9L229.6,18.9C234.8,18.9,239.0,14.7,239.0,9.4C239.0,4.2,234.8,.0,229.6,.0L9.4,.0L9.4,.0C4.2,.0,.0,4.2,.0,9.4C.0,14.7,4.2,18.9,9.4,18.9z" fill="#cfd7ff" id="shape15" transform="matrix(0.000000,-1.000000,1.000000,0.000000,2757.171180,7225.040000)"/><path stroke="#254694" fill-rule="nonzero" stroke-width="2.3333299160003662" d="M9.4,18.9L229.6,18.9L229.6,18.9C234.8,18.9,239.0,14.7,239.0,9.4C239.0,4.2,234.8,.0,229.6,.0L9.4,.0L9.4,.0C4.2,.0,.0,4.2,.0,9.4C.0,14.7,4.2,18.9,9.4,18.9z" fill="#cfd7ff" id="shape16" transform="matrix(0.000000,-1.000000,1.000000,0.000000,2813.861180,7225.040000)"/><path stroke="#954744" fill-rule="nonzero" stroke-width="2.3333299160003662" d="M9.4,18.9L229.6,18.9L229.6,18.9C234.8,18.9,239.0,14.7,239.0,9.4C239.0,4.2,234.8,.0,229.6,.0L9.4,.0L9.4,.0C4.2,.0,.0,4.2,.0,9.4C.0,14.7,4.2,18.9,9.4,18.9z" fill="#ffd8d7" id="shape17" transform="matrix(0.000000,-1.000000,1.000000,0.000000,2785.511180,7225.040000)"/><path stroke="#954744" fill-rule="nonzero" stroke-width="2.3333299160003662" d="M9.4,18.9L229.6,18.9L229.6,18.9C234.8,18.9,239.0,14.7,239.0,9.4C239.0,4.2,234.8,.0,229.6,.0L9.4,.0L9.4,.0C4.2,.0,.0,4.2,.0,9.4C.0,14.7,4.2,18.9,9.4,18.9z" fill="#ffd8d7" id="shape18" transform="matrix(0.000000,-1.000000,1.000000,0.000000,2842.211180,7225.040000)"/><path stroke="#101843" fill-rule="nonzero" stroke-width="1" d="M158.1,283.0C164.7,283.0,170.1,277.6,170.1,271.0L170.1,12.0C170.1,5.4,164.7,.0,158.1,.0L12.0,.0C5.4,.0,.0,5.4,.0,12.0L.0,271.0C.0,277.6,5.4,283.0,12.0,283.0L158.1,283.0z" fill="url(#lg2)" id="shape19" transform="translate(2898.900600,6964.040000)"/><path stroke="#2a7d72" fill-rule="nonzero" stroke-width="2.3333299160003662" d="M9.4,18.9L229.6,18.9L229.6,18.9C234.8,18.9,239.0,14.7,239.0,9.4C239.0,4.2,234.8,.0,229.6,.0L9.4,.0L9.4,.0C4.2,.0,.0,4.2,.0,9.4C.0,14.7,4.2,18.9,9.4,18.9z" fill="#d0f0ea" id="shape20" transform="matrix(0.000000,-1.000000,1.000000,0.000000,2917.801180,7225.040000)"/><path stroke="#254694" fill-rule="nonzero" stroke-width="2.3333299160003662" d="M9.4,18.9L229.6,18.9L229.6,18.9C234.8,18.9,239.0,14.7,239.0,9.4C239.0,4.2,234.8,.0,229.6,.0L9.4,.0L9.4,.0C4.2,.0,.0,4.2,.0,9.4C.0,14.7,4.2,18.9,9.4,18.9z" fill="#cfd7ff" id="shape21" transform="matrix(0.000000,-1.000000,1.000000,0.000000,2946.151180,7225.040000)"/><path stroke="#254694" fill-rule="nonzero" stroke-width="2.3333299160003662" d="M9.4,18.9L229.6,18.9L229.6,18.9C234.8,18.9,239.0,14.7,239.0,9.4C239.0,4.2,234.8,.0,229.6,.0L9.4,.0L9.4,.0C4.2,.0,.0,4.2,.0,9.4C.0,14.7,4.2,18.9,9.4,18.9z" fill="#cfd7ff" id="shape22" transform="matrix(0.000000,-1.000000,1.000000,0.000000,3002.841180,7225.040000)"/><path stroke="#954744" fill-rule="nonzero" stroke-width="2.3333299160003662" d="M9.4,18.9L229.6,18.9L229.6,18.9C234.8,18.9,239.0,14.7,239.0,9.4C239.0,4.2,234.8,.0,229.6,.0L9.4,.0L9.4,.0C4.2,.0,.0,4.2,.0,9.4C.0,14.7,4.2,18.9,9.4,18.9z" fill="#ffd8d7" id="shape23" transform="matrix(0.000000,-1.000000,1.000000,0.000000,2974.491180,7225.040000)"/><path stroke="#954744" fill-rule="nonzero" stroke-width="2.3333299160003662" d="M9.4,18.9L229.6,18.9L229.6,18.9C234.8,18.9,239.0,14.7,239.0,9.4C239.0,4.2,234.8,.0,229.6,.0L9.4,.0L9.4,.0C4.2,.0,.0,4.2,.0,9.4C.0,14.7,4.2,18.9,9.4,18.9z" fill="#ffd8d7" id="shape24" transform="matrix(0.000000,-1.000000,1.000000,0.000000,3031.191180,7225.040000)"/><path stroke="#101843" fill-rule="nonzero" stroke-width="1" d="M158.1,283.0C164.7,283.0,170.1,277.6,170.1,271.0L170.1,12.0C170.1,5.4,164.7,.0,158.1,.0L12.0,.0C5.4,.0,.0,5.4,.0,12.0L.0,271.0C.0,277.6,5.4,283.0,12.0,283.0L158.1,283.0z" fill="url(#lg2)" id="shape25" transform="translate(3087.870600,6964.040000)"/><path stroke="#2a7d72" fill-rule="nonzero" stroke-width="2.3333299160003662" d="M9.4,18.9L229.6,18.9L229.6,18.9C234.8,18.9,239.0,14.7,239.0,9.4C239.0,4.2,234.8,.0,229.6,.0L9.4,.0L9.4,.0C4.2,.0,.0,4.2,.0,9.4C.0,14.7,4.2,18.9,9.4,18.9z" fill="#d0f0ea" id="shape26" transform="matrix(0.000000,-1.000000,1.000000,0.000000,3106.771180,7225.040000)"/><path stroke="#254694" fill-rule="nonzero" stroke-width="2.3333299160003662" d="M9.4,18.9L229.6,18.9L229.6,18.9C234.8,18.9,239.0,14.7,239.0,9.4C239.0,4.2,234.8,.0,229.6,.0L9.4,.0L9.4,.0C4.2,.0,.0,4.2,.0,9.4C.0,14.7,4.2,18.9,9.4,18.9z" fill="#cfd7ff" id="shape27" transform="matrix(0.000000,-1.000000,1.000000,0.000000,3135.121180,7225.040000)"/><path stroke="#254694" fill-rule="nonzero" stroke-width="2.3333299160003662" d="M9.4,18.9L229.6,18.9L229.6,18.9C234.8,18.9,239.0,14.7,239.0,9.4C239.0,4.2,234.8,.0,229.6,.0L9.4,.0L9.4,.0C4.2,.0,.0,4.2,.0,9.4C.0,14.7,4.2,18.9,9.4,18.9z" fill="#cfd7ff" id="shape28" transform="matrix(0.000000,-1.000000,1.000000,0.000000,3191.811180,7225.040000)"/><path stroke="#954744" fill-rule="nonzero" stroke-width="2.3333299160003662" d="M9.4,18.9L229.6,18.9L229.6,18.9C234.8,18.9,239.0,14.7,239.0,9.4C239.0,4.2,234.8,.0,229.6,.0L9.4,.0L9.4,.0C4.2,.0,.0,4.2,.0,9.4C.0,14.7,4.2,18.9,9.4,18.9z" fill="#ffd8d7" id="shape29" transform="matrix(0.000000,-1.000000,1.000000,0.000000,3163.461180,7225.040000)"/><path stroke="#954744" fill-rule="nonzero" stroke-width="2.3333299160003662" d="M9.4,18.9L229.6,18.9L229.6,18.9C234.8,18.9,239.0,14.7,239.0,9.4C239.0,4.2,234.8,.0,229.6,.0L9.4,.0L9.4,.0C4.2,.0,.0,4.2,.0,9.4C.0,14.7,4.2,18.9,9.4,18.9z" fill="#ffd8d7" id="shape30" transform="matrix(0.000000,-1.000000,1.000000,0.000000,3220.161180,7225.040000)"/><g id="shape31" transform="translate(2305.170000,6986.040000)"><path stroke="#191919" stroke-width="2" d="M.0,-8.5L.0,-41.2L138.0,-41.2L138.0,-8.5" fill="none"/><path stroke-linecap="round" stroke="#191919" stroke-width="1" d="M4.2,-8.5L.0,.0L-4.2,-8.5L4.2,-8.5" fill="#191919"/><path stroke-linecap="round" stroke="#191919" stroke-width="1" d="M142.2,-8.5L138.0,.0L133.8,-8.5L142.2,-8.5" fill="#191919"/><rect y="-53.7" height="25.0" fill="#ffffff" width="124.0" x="4.8"/><text xml:space="preserve" style="fill:#191919;font-family:微软雅黑,PingFang SC,Mircrosoft YaHei,Arial;font-size:23px"><tspan y="-33.7" textLength="124.0" style="font-size:19px" x="4.8">Weight Share</tspan></text></g><g id="shape32" transform="translate(2374.170000,7225.040000)"><path stroke="#191919" stroke-width="2" d="M.0,8.5L.0,41.1L-138.0,41.1L-138.0,8.5" fill="none"/><path stroke-linecap="round" stroke="#191919" stroke-width="1" d="M-4.2,8.5L.0,.0L4.2,8.5L-4.2,8.5" fill="#191919"/><path stroke-linecap="round" stroke="#191919" stroke-width="1" d="M-142.2,8.5L-138.0,.0L-133.8,8.5L-142.2,8.5" fill="#191919"/><rect y="28.6" height="25.0" fill="#ffffff" width="124.0" x="-133.3"/><text xml:space="preserve" style="fill:#191919;font-family:微软雅黑,PingFang SC,Mircrosoft YaHei,Arial;font-size:23px"><tspan y="48.6" textLength="124.0" style="font-size:19px" x="-133.3">Weight Share</tspan></text></g><g id="shape33" transform="matrix(0.000000,-1.000000,1.000000,0.000000,2029.610000,7225.040000)"><path stroke="#954744" fill-rule="nonzero" stroke-width="2.3333299160003662" d="M22.0,44.0L217.0,44.0L217.0,44.0C229.2,44.0,239.0,34.2,239.0,22.0C239.0,9.8,229.2,.0,217.0,.0L22.0,.0L22.0,.0C9.8,.0,.0,9.8,.0,22.0C.0,34.2,9.8,44.0,22.0,44.0z" fill="#ffd8d7"/><text xml:space="preserve" style="fill:#191919;font-family:微软雅黑,PingFang SC,Mircrosoft YaHei,Arial;font-size:30px"><tspan y="31.5" textLength="197.0" style="font-size:24px" x="21.0">General SpaConv</tspan></text></g><g id="shape34" transform="matrix(0.000000,-1.000000,1.000000,0.000000,1950.920000,7179.449200)"><path stroke="#95762d" fill-rule="nonzero" stroke-width="2.3333299160003662" d="M22.0,44.0L125.8,44.0L125.8,44.0C138.0,44.0,147.8,34.2,147.8,22.0C147.8,9.8,138.0,.0,125.8,.0L22.0,.0L22.0,.0C9.8,.0,.0,9.8,.0,22.0C.0,34.2,9.8,44.0,22.0,44.0z" fill="#ffecd1"/><text xml:space="preserve" style="fill:#191919;font-family:微软雅黑,PingFang SC,Mircrosoft YaHei,Arial;font-size:30px"><tspan y="31.5" textLength="112.0" style="font-size:24px" x="17.9">3×3 Conv</tspan></text></g><g id="shape35" transform="translate(1994.920000,7105.540000)"><path stroke="#191919" stroke-width="4" d="M.0,.0L22.7,.0" fill="none"/><path stroke-linecap="round" stroke="#191919" stroke-width="1" d="M22.7,-6.0L34.7,.0L22.7,6.0L22.7,-6.0" fill="#191919"/></g><g id="shape36" transform="translate(2073.610000,7105.540000)"><path stroke="#191919" stroke-width="4" d="M.0,.0L22.7,-0.0" fill="none"/><path stroke-linecap="round" stroke="#191919" stroke-width="1" d="M22.7,-6.0L34.7,-0.0L22.7,6.0L22.7,-6.0" fill="#191919"/></g><g id="shape37" transform="matrix(0.000000,-1.000000,1.000000,0.000000,3292.650000,7225.040000)"><path stroke="#95762d" fill-rule="nonzero" stroke-width="2.3333299160003662" d="M22.0,44.0L217.0,44.0L217.0,44.0C229.2,44.0,239.0,34.2,239.0,22.0C239.0,9.8,229.2,.0,217.0,.0L22.0,.0L22.0,.0C9.8,.0,.0,9.8,.0,22.0C.0,34.2,9.8,44.0,22.0,44.0z" fill="#ffecd1"/><text xml:space="preserve" style="fill:#191919;font-family:微软雅黑,PingFang SC,Mircrosoft YaHei,Arial;font-size:30px"><tspan y="31.5" textLength="123.0" style="font-size:24px" x="58.0">Upsampler</tspan></text></g><g id="shape38" transform="translate(3257.950000,7105.540000)"><path stroke="#191919" stroke-width="4" d="M.0,.0L22.7,-0.0" fill="none"/><path stroke-linecap="round" stroke="#191919" stroke-width="1" d="M22.7,-6.0L34.7,-0.0L22.7,6.0L22.7,-6.0" fill="#191919"/></g><g id="shape39" transform="translate(1916.230000,7105.540000)"><path stroke="#191919" stroke-width="4" d="M.0,.0L22.7,-0.0" fill="none"/><path stroke-linecap="round" stroke="#191919" stroke-width="1" d="M22.7,-6.0L34.7,-0.0L22.7,6.0L22.7,-6.0" fill="#191919"/></g><g id="group40" transform="translate(1916.222400,7312.248800)"><path stroke="#7e7e7e" fill-rule="nonzero" stroke-width="2.3333299160003662" d="M.0,.0L37.8,.0L37.8,40.1L.0,40.1L.0,.0z" fill="#c2c2c2" id="shape41"/><path stroke="#7e7e7e" fill-rule="nonzero" stroke-width="2.3333299160003662" d="M.0,.0L78.7,-37.8L78.7,2.3L.0,40.1L.0,.0z" fill="#c2c2c2" id="shape42" transform="matrix(-1.000000,0.000000,0.000000,1.000000,0.000000,0.000000)"/><path stroke="#7e7e7e" fill-rule="nonzero" stroke-width="2.3333299160003662" d="M-78.7,.0L-40.9,.0L37.8,37.8L.0,37.8L-78.7,.0z" fill="#c2c2c2" id="shape43" transform="translate(0.000000,-37.795200)"/></g><g id="shape44" transform="translate(1818.639500,7208.724638)"><text xml:space="preserve" style="fill:#191919;font-family:微软雅黑,PingFang SC,Mircrosoft YaHei,Arial;font-size:23px"><tspan y="24.0" textLength="120.0" style="font-size:19px" x="18.6">Degradation </tspan><tspan y="49.0" textLength="60.0" style="font-size:19px" x="45.6">Vector</tspan></text></g><g id="shape45" transform="translate(1935.118425,7332.283677)"><path stroke="#191919" stroke-width="2" d="M.0,.0L232.1,.0L232.1,-98.8" fill="none"/><path stroke-linecap="round" stroke="#191919" stroke-width="1" d="M227.8,-98.8L232.1,-107.2L236.3,-98.8L227.8,-98.8" fill="#191919"/></g><g id="shape46" transform="translate(2167.170000,7332.283677)"><path stroke="#191919" stroke-width="2" d="M.0,.0L382.1,.0L382.1,-97.8" fill="none"/><path stroke-linecap="round" stroke="#191919" stroke-width="1" d="M377.9,-97.8L382.1,-106.3L386.4,-97.8L377.9,-97.8" fill="#191919"/></g><g id="shape47" transform="translate(2549.290000,7332.283677)"><path stroke="#191919" stroke-width="2" d="M.0,.0L189.0,.0L189.0,-97.8" fill="none"/><path stroke-linecap="round" stroke="#191919" stroke-width="1" d="M184.7,-97.8L189.0,-106.3L193.2,-97.8L184.7,-97.8" fill="#191919"/></g><g id="shape48" transform="translate(2738.270000,7332.283677)"><path stroke="#191919" stroke-width="2" d="M.0,.0L189.0,.0L189.0,-97.8" fill="none"/><path stroke-linecap="round" stroke="#191919" stroke-width="1" d="M184.7,-97.8L189.0,-106.3L193.2,-97.8L184.7,-97.8" fill="#191919"/></g><g id="shape49" transform="translate(2927.250000,7332.283677)"><path stroke="#191919" stroke-width="2" d="M.0,.0L189.0,.0L189.0,-97.8" fill="none"/><path stroke-linecap="round" stroke="#191919" stroke-width="1" d="M184.7,-97.8L189.0,-106.3L193.2,-97.8L184.7,-97.8" fill="#191919"/></g><g id="shape50" transform="translate(3336.650000,7105.540000)"><path stroke="#191919" stroke-width="4" d="M.0,.0L22.7,-0.0" fill="none"/><path stroke-linecap="round" stroke="#191919" stroke-width="1" d="M22.7,-6.0L34.7,-0.0L22.7,6.0L22.7,-6.0" fill="#191919"/></g><g id="shape51" transform="translate(1872.230000,7088.969350)"><text xml:space="preserve" style="fill:#191919;font-family:微软雅黑,PingFang SC,Mircrosoft YaHei,Arial;font-size:23px"><tspan y="24.0" textLength="22.0" style="font-size:19px" x="11.0">LR</tspan></text></g><g id="shape52" transform="translate(3371.350400,7088.968650)"><text xml:space="preserve" style="fill:#191919;font-family:微软雅黑,PingFang SC,Mircrosoft YaHei,Arial;font-size:23px"><tspan y="24.0" textLength="27.0" style="font-size:19px" x="8.5">HR</tspan></text></g></g></svg>